<?xml version="1.0" encoding="UTF-8"?>
<!DOCTYPE svg PUBLIC "-//W3C//DTD SVG 1.1//EN" "http://www.w3.org/Graphics/SVG/1.1/DTD/svg11.dtd">
<!-- Creator: CorelDRAW -->
<svg xmlns="http://www.w3.org/2000/svg" xml:space="preserve" width="167.135mm" height="90.4642mm" version="1.1" style="shape-rendering:geometricPrecision; text-rendering:geometricPrecision; image-rendering:optimizeQuality; fill-rule:evenodd; clip-rule:evenodd"
viewBox="0 0 2419.52 1309.6"
 xmlns:xlink="http://www.w3.org/1999/xlink"
 xmlns:xodm="http://www.corel.com/coreldraw/odm/2003">
 <defs>
  <style type="text/css">
   <![CDATA[
    .fil10 {fill:#518F6B;fill-rule:nonzero}
    .fil11 {fill:#DBACA9;fill-rule:nonzero}
    .fil4 {fill:url(#id0)}
    .fil6 {fill:url(#id1)}
    .fil5 {fill:url(#id2)}
    .fil0 {fill:url(#id3)}
    .fil7 {fill:url(#id4)}
    .fil9 {fill:url(#id5)}
    .fil2 {fill:url(#id6)}
    .fil1 {fill:url(#id7)}
    .fil8 {fill:url(#id8)}
    .fil3 {fill:url(#id9)}
   ]]>
  </style>
  <linearGradient id="id0" gradientUnits="userSpaceOnUse" x1="541.83" y1="260.04" x2="572.39" y2="260.04">
   <stop offset="0" style="stop-opacity:1; stop-color:#518F6B"/>
   <stop offset="0.592157" style="stop-opacity:1; stop-color:#7DB594"/>
   <stop offset="0.988235" style="stop-opacity:1; stop-color:#A9DBBE"/>
   <stop offset="1" style="stop-opacity:1; stop-color:#A9DBBE"/>
  </linearGradient>
  <linearGradient id="id1" gradientUnits="userSpaceOnUse" xlink:href="#id0" x1="574.59" y1="690.36" x2="754.39" y2="690.36">
  </linearGradient>
  <linearGradient id="id2" gradientUnits="userSpaceOnUse" xlink:href="#id0" x1="0.41" y1="871.19" x2="518.67" y2="871.19">
  </linearGradient>
  <linearGradient id="id3" gradientUnits="userSpaceOnUse" xlink:href="#id0" x1="433.04" y1="520.17" x2="854.29" y2="520.17">
  </linearGradient>
  <linearGradient id="id4" gradientUnits="userSpaceOnUse" xlink:href="#id0" x1="435.13" y1="571.34" x2="543.14" y2="571.34">
  </linearGradient>
  <linearGradient id="id5" gradientUnits="userSpaceOnUse" xlink:href="#id0" x1="339.15" y1="465.78" x2="387.35" y2="465.78">
  </linearGradient>
  <linearGradient id="id6" gradientUnits="userSpaceOnUse" xlink:href="#id0" x1="467.51" y1="948.42" x2="543.66" y2="948.42">
  </linearGradient>
  <linearGradient id="id7" gradientUnits="userSpaceOnUse" xlink:href="#id0" x1="827.87" y1="354.33" x2="870.22" y2="354.33">
  </linearGradient>
  <linearGradient id="id8" gradientUnits="userSpaceOnUse" xlink:href="#id0" x1="556.77" y1="877.75" x2="590.75" y2="877.75">
  </linearGradient>
  <linearGradient id="id9" gradientUnits="userSpaceOnUse" xlink:href="#id0" x1="273.51" y1="582.75" x2="923.35" y2="582.75">
  </linearGradient>
 </defs>
 <g id="Layer_x0020_1">
  <metadata id="CorelCorpID_0Corel-Layer"/>
  <g id="_2560270834000">
   <path class="fil0" d="M836.05 292.73c-18.53,14.29 -227.86,176.63 -294.32,244.26 -34.58,35.19 -66.79,72.63 -90,116.65 -17.05,32.33 -28.1,66.2 -21.36,103.57 0.21,1.19 0.58,2.34 0.88,3.51 1.22,-10.34 -0.3,-20.39 0.8,-30.72 4.11,-38.71 20.73,-72.07 42.83,-102.99 38.6,-54.04 86.14,-99.57 136.81,-142.13 40.01,-33.61 82.38,-64.25 122.23,-98.25 -11.34,16.82 -27.33,30.24 -36,49.15 3.2,1.24 4.04,-1.16 5.04,-2.5 19.8,-26.58 43.62,-49.42 66.96,-72.72 1.74,-1.74 12.04,-12.15 13.93,-13.86 11.12,-10.02 21.92,-20.42 32.9,-30.61 5.71,-5.3 11.52,-10.49 17.29,-15.72 -3.17,10.91 -11.51,17.83 -17.37,26.51 -6.88,10.18 -15,19.52 -22.34,29.42 -1.31,1.77 -10.27,13.55 -11.55,15.22 -20.41,26.71 -39.81,54.22 -61.75,79.73 -16.01,18.61 -37.2,31.18 -55.77,46.82 -2.74,2.3 -5.83,4.22 -8.15,10.22 12.6,-7.6 23.15,-14.12 33.85,-20.38 29.42,-17.22 51.04,-42.42 71.15,-69.18 9,-11.98 17.8,-24.1 26.89,-36 1.43,-1.86 12.47,-17.61 14.23,-20.06 16.92,-23.51 32.74,-47.77 47.88,-72.46 1.8,-2.93 4.63,-5.68 3.73,-10.57 -7.41,3.24 -12.88,8.55 -18.78,13.1z"/>
   <path class="fil1" d="M828.1 390.2c-0.15,1.64 -2.38,22.98 -0.62,27.62 1.5,0.27 3.21,-1.58 3.21,-1.62 -0.12,-2.6 19.06,-67.46 28.27,-92.56 3.9,-10.63 9.94,-20.76 11.26,-32.59 -0.01,0 -0.02,-0.01 -0.03,-0.01 -4.85,-0 -38.84,64.59 -42.09,99.16z"/>
   <path class="fil2" d="M484.61 874.52c8.56,13.98 16.92,28.09 25.63,41.98 1.26,2.3 2.28,4.22 3.01,5.59 2.58,4.88 3.91,7.38 5.13,10.14 1.36,3.06 8.96,18.98 9.95,20.87 9.99,19.17 13.62,38.48 5.53,85.7 -1.58,9.27 -2.12,18.72 -2.27,28.21 7.82,-14.69 10.65,-30.76 12.53,-46.75 3.54,-30.21 1.62,-59.9 -13.58,-87.38 -2.7,-4.87 -10.09,-18.24 -12.7,-22.46 -16.43,-26.57 -36.28,-50.94 -50.56,-80.59 -0.27,11.69 4.91,24.38 17.34,44.69z"/>
   <path class="fil3" d="M552.66 0l-0.07 0c-2.12,0 -4.09,1.96 -5.84,3.16 -18.96,12.97 -37.95,25.89 -54.88,41.57 -5.18,4.79 -21.94,21.35 -27.53,26.85 -56.58,55.83 -103.01,119.35 -142.96,187.84 -36.12,61.93 -54.87,128.19 -50.82,200.3 1.75,30.98 6.17,61.51 13.62,91.65 15.08,60.98 38.05,118.23 75.23,169.61 15.94,22.03 34.36,42.7 40.13,71.43 6.55,32.62 23.48,61.34 41.17,89.33 29.79,47.15 56.66,95.63 69.97,150.54 8.37,34.5 12.97,69.32 11.55,104.82 -0.23,5.92 -0.95,11.97 -3.52,17.53 -0.3,3.61 -0.6,7.23 -0.9,10.85 2.19,-1.23 2.9,-2.64 3.36,-4.14 7.39,-24.18 14.63,-48.41 22.13,-72.54 12.34,-39.7 23.67,-79.68 34.76,-119.74 7.08,-25.62 14.22,-51.32 24.59,-75.93 13.83,-32.79 35.54,-60.09 60.23,-85.1 28.33,-28.7 59.33,-54.53 88.98,-81.81 0,0 55.94,-55.58 77.48,-124.43 3.32,-10.59 4.88,-20.86 4.88,-20.86 0.64,-4.2 0.98,-7.69 1.15,-10 3.3,-22.75 6.51,-45.74 9.99,-68.68 3,-19.73 6.34,-39.42 9.52,-59.12 0.28,-1.76 11.84,-64.91 20.3,-87.42 15.56,-41.41 30.87,-82.89 42.78,-125.56 2.03,-7.26 4.34,-14.35 5.38,-23.36 -11.55,4.72 -19.19,12.82 -27.99,19.01 -45.54,31.96 -91.72,62.89 -140.55,89.71 -1.48,0.81 -2.83,1.37 -4.12,1.71 -3.15,2.31 -6.51,4.35 -10,5.8 -0.93,0.93 -2.44,1.8 -4.63,2.65 -20.78,8.07 -41.48,16.34 -62.15,24.68 -7.87,3.18 -15.57,6.76 -24.57,10.69 5.28,-28.95 10.21,-56.42 4.77,-84.4 -0.59,-3.03 -11.73,-56.05 -12.14,-57.13 -0.85,-1.35 -1.37,-2.81 -1.58,-4.36 -2.64,-4.37 -4.31,-9.46 -6.27,-14.06 -1.99,-4.68 -3.69,-9.35 -5.19,-14.08 -14.76,-32.99 -34.38,-62.77 -58.01,-90.12 -5.75,-6.66 -12.06,-13.1 -14.51,-22.39 -5.75,-21.78 -4.31,-43.5 -1.17,-65.34 0.41,-2.88 2.36,-6.35 -0.49,-8.42 -0.71,-0.52 -1.41,-0.74 -2.09,-0.76zm-260.02 449.17c-5.57,-77.51 20.39,-145.72 58.4,-211.07 33.39,-57.39 75.07,-108.1 121.33,-155.34 3.48,-3.55 23.2,-20.61 24.36,-21.76 10.24,-10.09 21.77,-18.58 33.43,-26.89 4.11,-2.93 6.42,-1.52 5.74,3.39 -0.83,6.02 0.28,11.98 0.05,17.9 -0.88,23.03 9.74,40.77 24.33,57.2 7.38,8.34 13.76,17.57 19.18,27.61 -9.96,-9.6 -17.57,-21.36 -29.06,-29.41 2.47,8.67 8.67,15.13 12.36,23.1 -13.55,-10.11 -24.61,-22.41 -31.99,-37.71 -7.59,-15.75 -7.23,-12.28 -13.16,-7.11 -5.93,5.16 -56.67,48.72 -75.8,73.49 -16.13,20.89 -31.46,42.13 -42.55,66.2 -1.82,3.95 -3.34,7.93 -2.83,12.88 8.12,-13.58 15.81,-27.43 24.97,-40.33 9.66,-13.61 20.67,-26.1 31.66,-38.59 10.73,-12.21 22.02,-23.89 35.72,-33.12 -7.64,15.49 -18.33,28.93 -28.39,42.73 -24.96,34.26 -48.12,69.58 -65.13,108.56 -24.74,56.7 -32.24,114.92 -14.77,175.2 0.53,1.83 1.38,3.58 2.51,6.46 2.88,-3.92 1.67,-7.1 1.04,-10.04 -12.07,-56.1 -3.52,-109.67 19.2,-161.69 21.37,-48.92 52.49,-91.77 83.4,-134.73 11.59,-16.12 19.85,-33.87 27.72,-51.86 3.22,-7.35 6.24,-8.98 10.79,-1.52 27.25,44.7 53.16,90 66.29,141.39 2.65,10.37 3.93,42.37 2.54,52.77 -0.07,-0.06 -0.13,-0.12 -0.2,-0.18 -0.18,4.15 -8.38,43.69 -13.56,52.54 0,0.3 -0.64,2.17 -0.94,2.97 -7.65,20.94 -15.58,41.75 -24.81,62.1 -5.39,11.87 -14.86,19.63 -24.38,27.26 -15.66,12.57 -29.23,27.24 -43.55,41.17 -3.17,3.08 -62.87,80.12 -76.59,118.79 -11.31,31.87 -18.18,64.49 -21.74,98.74 -67.19,-117.96 -65.82,-242.97 -43.45,-372.85 -8.39,11.23 -9.54,22.3 -11.97,32.69 -11.09,47.31 -13.52,95.39 -12.62,143.84 0.74,39.66 6.26,78.46 21.08,115.2 12.07,29.9 25.46,59.39 41.73,87.36 3.85,6.62 6.15,13.16 5.71,20.74 -0.59,10.19 2.17,20.13 2.42,30.49 -12.08,-19.25 -22.84,-38.94 -33.08,-58.98 -19.34,-37.86 -29.34,-78.54 -36.08,-119.97 -5.27,-32.46 -9.18,-65.2 -9.44,-98.31 -0.23,-29.28 -0.47,-58.48 2.38,-87.68 3.82,-39.15 17.15,-74.99 35.89,-109.25 20.19,-36.9 43.62,-71.6 68.94,-105.11 24.1,-31.89 49.27,-62.89 75.86,-92.76 1.26,-1.41 1.57,-6.8 0.66,-6 -0.92,1.33 -2.29,2.56 -3.57,3.84 -18.52,18.68 -36.63,37.7 -53.75,57.71 -43.83,51.26 -83.81,105.07 -113.19,166.16 -16.45,34.21 -23.21,70.81 -24.73,108.2 -1.35,33.2 -2.49,66.57 3.06,99.67 0.59,3.53 0.08,7.25 0.08,10.88 -5.32,-25.61 -9.67,-51 -11.54,-76.96zm311.09 -203.36c-8.07,-37.98 -24.96,-72.16 -45.11,-104.94 -0.49,-0.81 -0.62,-1.83 -0.93,-2.75 7.44,3.74 13.66,8.76 17.49,15.83 15.88,29.28 31.11,58.84 38.42,91.76 1.35,6.05 3.99,11.81 6.79,19.9 -8.44,-6.22 -14.84,-11.14 -16.67,-19.79zm-78.11 834.33c-2.84,-40.62 -12.98,-79.35 -28.15,-116.88 -0.09,-0.22 -0.14,-0.48 -0.18,-0.76 -0.48,-1.35 -0.99,-2.72 -1.52,-4.11 -0.65,-1.71 -1.32,-3.36 -1.99,-4.96 0.08,-0.48 -10.99,-23 -11.11,-23.22 -17.69,-33.2 -39.22,-64.33 -54.28,-98.92 -21.37,-49.04 -28.02,-100.07 -20.63,-153.22 9.38,-67.35 39.38,-124.27 84.69,-174.07 50.76,-55.77 109.67,-100.85 176.49,-135.62 23.65,-12.31 49.29,-20.36 72.85,-32.97 1.97,-1.32 3.83,-2.8 5.89,-4 2.15,-1.26 4.55,-1.94 6.76,-3.09 1.04,-0.55 2.01,-1.2 2.99,-1.86 0.43,-0.29 0.93,-0.55 1.43,-0.82 1.61,-1.68 4.41,-2.53 6.37,-3.67 26.45,-15.49 51.81,-32.64 76.87,-50.23 20.44,-14.34 40.8,-28.79 61.22,-43.16 2.13,-1.5 4.41,-2.77 9.29,-5.81 -7.3,21.27 -13.76,39.9 -20.08,58.57 -11.3,33.41 -28.04,64.76 -37.6,98.83 -2.33,8.31 -10.94,46.48 -11.29,47.89 -9.42,38.47 -14.73,77.72 -22.02,116.59 -4.53,24.15 -7.66,48.58 -13.29,72.53 -3.98,16.94 -10.99,32.27 -25.9,42.79 5.26,-11.71 12.25,-22.49 16.21,-34.82 5.88,-18.33 6.95,-37.03 7.1,-56.08 0.23,-29.04 -5.52,-57.59 -5.46,-86.65 0.06,-28.37 6.02,-55.42 12.82,-82.54 0.52,-2.08 1.12,-3.34 1.82,-3.99 0.02,-0.84 0.04,-1.68 0.04,-2.51 0.01,-1.77 0,-3.72 0.62,-5.42l-5.48 5.47c-0.02,0.18 -0.03,0.37 -0.08,0.54 0.06,0.34 -0.03,0.69 -0.27,0.93 -4.7,15.66 -10.62,30.91 -14.45,46.89 -6.45,26.92 -7.39,53.77 -4.33,81.25 2.91,26.1 4.88,52.48 1.09,78.68 -4.23,29.28 -19.47,53.44 -37.44,76.14 -15.49,19.57 -31.25,38.91 -43.02,61.19 -5.02,9.49 -14.4,15.6 -22.01,23.01 -9.69,9.43 -19.94,18.29 -30.99,28.33 -0.97,-6.43 2.91,-9.04 5.31,-12.15 18.08,-23.46 39.85,-43.83 56.61,-68.46 20.1,-29.51 38.71,-59.82 53.7,-92.27 1.37,-2.97 2.41,-6.11 1.58,-10.5 -2.49,3.82 -5.01,7.61 -7.45,11.45 -25.71,40.5 -51.51,81.04 -83.47,116.96 -27.48,30.87 -49.15,64.85 -67.71,101.83 -14.51,28.92 -30.34,56.96 -38.74,88.38 -7.57,28.29 -14.54,56.73 -21.85,85.09 -9.21,35.73 -18.49,71.44 -28.49,107.14 -1.19,-12.59 -1.61,-25.18 -2.49,-37.71zm73.39 -751.12c6.12,-18.39 11.19,-36.82 8.3,-56.5 -0.33,-2.25 -1.18,-5.29 0.85,-6.62 2.76,-1.82 4.9,1.08 6.85,2.64 4.49,3.58 8.12,7.77 9.13,13.81 4.29,25.65 6.75,51.42 6.63,77.47 -0.03,7.92 -2.56,12.81 -9.53,16.84 -18.39,10.62 -36.21,22.21 -54.41,33.97 11.91,-26.92 22.95,-53.89 32.18,-81.61zm40.99 35.94c-4.41,-0.28 -3.17,-5.16 -3.04,-8.22 0.78,-19.2 2.5,-38.39 0.13,-57.6 -1.29,-10.43 -2.62,-20.84 -3.94,-31.26 8.26,14.76 8.74,31.11 10.67,46.99 1.67,13.76 0.76,27.85 0.73,41.79 0,3.3 0.56,8.31 -4.09,8.31 -0.15,0 -0.3,-0 -0.46,-0.02zm142.69 302.68c-15.32,21.42 -33.11,40.25 -53.82,56.28 17.46,-19.29 30.41,-42.83 53.82,-56.28z"/>
   <path class="fil4" d="M554.39 232.59c3.53,15.56 6.34,31.34 5.92,47.42 -0.08,2.69 -3.15,51.39 -3.86,55.43 4.98,1.61 10.42,-11.3 10.97,-13.87 0.38,-1.77 5.4,-46.61 5.17,-49.01 -2.5,-26.36 -7.56,-52.04 -20.97,-75.34 -2.23,-3.88 -3.9,-8.44 -9.8,-11.26 4.43,16.27 9.08,31.31 12.56,46.62z"/>
   <path class="fil5" d="M180.85 596.28c-6.65,9.98 -13.14,19.96 -20.8,29.25 -7.82,9.49 -7.52,17.06 -0.71,27.39 4.6,6.97 10.97,11.9 18.67,14.4 14.41,4.65 29.04,7.48 43.91,1.13 2.9,-1.24 6.19,-3.69 10.17,-0.93 -11.42,6.05 -11.57,8.01 -2.13,15.77 32.19,26.46 62.99,54.4 91.43,84.94 35.05,37.62 66.92,77.72 95.01,120.77 5.62,8.61 12.13,16.97 15.69,27.32 -3.97,0.38 -5.28,-1.85 -6.87,-3.39 -45.89,-44.45 -99.08,-77.61 -158.57,-100.26 -36.23,-13.81 -72.17,-27.68 -103.04,-51.9 -4.17,-3.26 -9.9,-5.89 -10.12,-11.68 -0.21,-5.54 -2.98,-5.44 -5.74,-5.35 -1.32,0.05 -2.64,0.09 -3.67,-0.49 -4.56,-2.6 5.94,-8.67 -0.86,-12.75 -0.57,-0.35 -1.01,-0.91 -1.6,-1.18 -4.69,-2.09 -5.32,-5.5 -5.07,-10.51 0.86,-17.17 -14.05,-34.04 -31.12,-36.14 -11.66,-1.43 -18.87,5.03 -19.2,16.93 -0.14,4.97 -0.49,9.97 -1.17,14.9 -1.8,13.03 4.65,25.25 17.06,29.33 5.91,1.94 8.27,4.97 9.88,10.67 3.49,12.41 19.46,20.92 28.15,13.61 11.07,-9.31 16.76,-3.31 23.82,3.72 2.35,2.34 5.18,4.18 7.79,6.24 27.57,21.69 59.57,34.94 91.43,48.65 59.29,25.53 113.15,59.43 158.39,105.99 13.06,13.45 25.82,27.27 36.21,44.37 -7.44,0.29 -10.92,-3.43 -14.16,-7.8 -30.79,-41.69 -69.68,-74.12 -114.79,-99.14 -68.62,-38.05 -142.82,-55.86 -220.74,-59.66 -4.77,-0.23 -9.25,-0.57 -12.79,-4.38 -5.65,-6.09 -11.97,-11.52 -16.94,-18.31 -15.54,-21.23 -46.1,-19.31 -59.07,3.67 -3.8,6.71 -8.13,12.91 -13.19,18.73 -4.4,5.06 -6.54,10.11 -6.07,15.03 0.45,4.76 3.61,8.31 6.41,11.56 2.92,3.39 3.06,2.24 10.05,8.71 3.84,3.56 4.92,4.95 7.77,6.1 2.99,1.21 6,1.37 7.55,1.46 2.84,0.16 4.98,-0.14 6.48,-0.36 2.62,-0.37 6.36,-1.19 10.65,-3.06 2.05,-0.35 4.96,-1 8.32,-2.27 1.51,-0.57 4.19,-1.69 7.46,-3.69 9.83,-5.99 21.71,-19.25 25.21,-24.08 1.11,-1.54 1.88,-3.96 4.48,-2.69 2.06,1 2.25,3.25 2.18,5.22 -0.33,8.97 -6.16,12.64 -14.01,14.33 -2.15,0.46 -5.64,0.2 -5.14,3.28 0.56,3.46 4.19,2.91 6.66,2.32 8.57,-2.05 17.01,-6.41 17.65,-15.46 0.85,-11.94 7.2,-10.02 14.73,-8.94 41.6,6 82.36,15.28 122.1,29.24 62.14,21.82 118.22,53.43 165.2,100.13 1.47,1.46 3.99,2.72 2.56,6.44 -2.5,-1.86 -4.85,-3.5 -7.08,-5.28 -20.92,-16.65 -42.91,-31.59 -67.51,-42.35 -46.21,-20.21 -94.36,-30.15 -144.9,-27.66 -1.42,0.07 -6.7,0.19 -12.08,-2.75 -3.79,-2.07 -6.36,-4.98 -8.06,-7.47 -1.78,-1.92 -4.51,-4.39 -8.35,-6.27 -2.34,-1.15 -4.72,-1.88 -6.85,-2.36 -5.28,-1.38 -9.72,-1.6 -12.75,-1.55 -5.3,0.08 -11.09,0.18 -16.87,3.9 -3.01,1.94 -5.64,4.63 -7.8,8.18 -5.72,9.35 -4.01,18.61 1.57,27.32 11.17,17.42 51.38,7.62 54.77,-3.67 0.43,-1.43 0.75,-5.13 3.69,-7.67 1.89,-1.61 4.1,-2.14 5.59,-2.33 1.14,-0.15 2.72,-0.33 4.58,-0.43 0,0 3.39,-0.28 6.85,0.01 22.26,1.87 44.12,5.88 65.8,11.39 58.48,14.87 109.54,42.9 152.61,85.15 7.2,7.07 37.25,44.27 40.77,49.6 25.5,38.68 43.97,80.59 57.77,124.69 1.09,3.5 1.1,7.79 5.8,10.67 -0.34,-6.57 -0.56,-12.15 -0.93,-17.72 -0.18,-2.65 -0.59,-5.3 -0.98,-7.93 -6.54,-44.9 -19.53,-87.69 -41.47,-127.57 -3.03,-5.51 -4.92,-11.12 -1.98,-19.18 4.9,8.72 10,15.54 12.83,23.19 15.25,41.24 30.24,82.6 33.34,127.05 0.31,4.38 1.29,8.57 4.06,12.14 1.56,-23.63 1.45,-59.92 -9.57,-101.92 -3.71,-14.14 -11.28,-29.65 -25.17,-65.18 -28.68,-73.4 -70.43,-138.79 -122.07,-198.08 -32.7,-37.55 -68.68,-71.6 -107.95,-102.22 -8.36,-6.52 -11.97,-15.94 -14.64,-25.78 1.84,1.47 2.9,3.41 3.95,5.34 5.42,9.95 13.39,15.76 25.11,14.45 11.48,-1.29 18.63,-8.36 22.46,-18.82 5.86,-16 -4.7,-35.6 -23.29,-41.66 -6.98,-2.27 -9.91,-5.62 -11.69,-12.58 -4.14,-16.14 -14.31,-27.09 -31.42,-29.61 -3.02,-0.45 -5.96,-0.68 -8.84,-0.68 -14.12,0 -26.27,5.58 -34.84,18.47z"/>
   <path class="fil6" d="M714.52 568.27c-5.09,5.59 -8.86,12.46 -8.98,19.66 -0.27,14.97 -5.03,28.76 -9.42,42.58 -6.39,20.16 -9.81,41.5 -22.86,59.18 -25.29,34.25 -50.89,68.24 -78.33,100.83 -6.99,8.3 -13.57,16.93 -20.34,25.42 48.15,-32.8 174.24,-201.28 179.8,-238.92 -16.29,22.35 -31.43,43.14 -46.58,63.92 -0.9,-8.46 1.88,-16.02 1.34,-23.89 -0.53,-7.76 1.93,-13.95 7.79,-19.54 6.71,-6.4 9.57,-15.1 9.97,-24.38 0.15,-3.42 -0.71,-6.84 -4.53,-8.04 -0.62,-0.19 -1.22,-0.28 -1.78,-0.28 -2.45,0 -4.4,1.64 -6.08,3.48z"/>
   <path class="fil7" d="M431.43 657.7c24,-67.57 67.7,-120.19 111.71,-172.73 -46.63,25.46 -115.91,132.12 -111.71,172.73z"/>
   <path class="fil8" d="M584.9 831.92c-20.77,15.41 -38.06,65 -31.28,89.6 0.51,1.86 0.63,4.63 2.88,4.7 3.73,0.13 3.43,-3.6 3.91,-5.89 6.31,-30.61 14.93,-60.46 30.35,-90.91 -3.58,1.51 -4.88,1.79 -5.85,2.51z"/>
   <path class="fil9" d="M360.25 334.34c-11.71,36.92 -18.5,74.75 -21.1,113.37 -1.74,25.67 -0.84,51.25 3.28,76.61 5.14,31.67 19.22,60.04 33.99,88.06 1.92,3.65 3.2,9.03 9.16,6.68 6.54,-2.58 3.61,-7.8 2.17,-11.91 -15.49,-44.13 -19.43,-90.15 -22.44,-136.33 -0.34,-5.24 -0.05,-10.53 -0.05,-15.79 -0.9,0.05 -1.8,0.1 -2.7,0.15 -3.52,32.07 -2.7,64.17 0.43,96.28 -25.11,-79.91 -10.69,-158.79 6.91,-237.6 -0.86,-0.06 -1.71,-0.11 -2.57,-0.17 -2.36,6.87 -4.87,13.71 -7.07,20.64z"/>
   <path class="fil10" d="M721.38 919.47c18.97,-3.24 35.76,-5.86 50.37,-7.86 14.61,-2 30.27,-4.12 46.99,-6.37 6.74,-0.99 13.61,-1.87 20.6,-2.62 8.98,-61.66 19.85,-120.95 32.58,-177.87 8.74,-38.94 14.98,-69.9 18.72,-92.87 -30.21,48.68 -62.91,103.85 -98.1,165.51 -21.98,38.19 -44.69,77.14 -68.16,116.83l-2.99 5.24zm159.15 247.89c-1.5,0 -2.75,-0.5 -3.75,-1.5 -17.48,-18.97 -29.46,-41.5 -35.95,-67.58 -6.49,-26.09 -9.73,-56.11 -9.73,-90.06 0,-31.95 2.49,-64.53 7.49,-97.74 -30.46,2.5 -71.77,9.24 -123.95,20.22 -59.16,102.85 -111.97,174 -158.39,213.44l-1.87 0.37c-2.25,0 -3.61,-1.36 -4.12,-4.12 0,-0.75 0.13,-1.31 0.37,-1.68 0.25,-0.38 0.63,-0.69 1.13,-0.94 44.19,-37.19 95.11,-105.47 152.78,-204.83 -43.44,9.49 -86.26,27.22 -128.44,53.17 -1.75,1.5 -3.88,2.25 -6.37,2.25 -1.5,0 -3.37,-0.69 -5.62,-2.06 -2.25,-1.37 -3.37,-3.8 -3.37,-7.3 0,-4.49 2.62,-8.11 7.87,-10.86 44.43,-22.46 91.99,-38.06 142.67,-46.81 0.75,-1.24 1.43,-2.25 2.05,-3 0.62,-0.75 1.06,-1.31 1.31,-1.69 0.25,-0.37 0.37,-0.81 0.37,-1.31 0.25,-0.75 1.25,-2.49 3,-5.24 20.97,-35.95 41.32,-70.89 61.04,-104.85 39.69,-69.9 78.01,-134.55 114.96,-193.97l3.74 -2.99c5.24,0 7.86,1.87 7.86,5.61 -5.74,35.95 -12.49,74.03 -20.22,114.21 -11.49,57.67 -21.35,115.09 -29.59,172.25 27.96,-3.75 54.3,-8.73 79.01,-14.98l3 0 0.75 3.75c0,1.25 -0.88,2.61 -2.62,4.12 -25.22,6.24 -52.42,11.11 -81.63,14.61 -3.75,30.45 -5.62,60.54 -5.62,90.24 0,15.98 1.12,38.95 3.37,68.9 2.25,29.71 12.73,61.41 31.45,95.11l0.75 1.12c0,1 -0.19,1.87 -0.56,2.62 -0.38,0.75 -0.82,1.12 -1.31,1.12 -0.25,0.25 -0.56,0.37 -0.93,0.37l-0.94 0z"/>
   <path class="fil10" d="M929.58 1010.85c-4.24,0 -6.37,-2.49 -6.37,-7.49 0,-5.99 2.44,-16.48 7.3,-31.45 4.87,-14.98 10.05,-28.08 15.54,-39.32 2.75,-4.49 6.37,-6.98 10.86,-7.49 6.99,0 10.48,2.5 10.48,7.49l0 0.37c0,1.25 -0.51,2.75 -1.5,4.49 -10.98,19.72 -19.22,37.2 -24.71,52.43 10.98,-11.48 24.09,-23.09 39.32,-34.83 15.22,-11.73 27.46,-17.6 36.7,-17.6 8.24,0 14.79,1.5 19.66,4.49 4.87,3 8.61,6.81 11.24,11.42 2.62,4.62 5.06,9.3 7.3,14.04 1.99,6.25 4.68,11.55 8.05,15.91 3.37,4.37 8.67,6.56 15.91,6.56 22.97,0 60.16,-8.61 111.59,-25.84l68.15 -26.59 0.37 0 0.75 -0.75c1.75,0.75 2.88,1.45 3.37,2.06 0.5,0.63 0.75,1.56 0.75,2.81l0 1.12c0,0.5 -0.37,1.12 -1.12,1.87l-20.6 8.24c-75.14,29.95 -129.56,44.94 -163.26,44.94 -19.97,0 -33.2,-4.24 -39.69,-12.74 -6.25,-8.98 -10.24,-17.6 -11.99,-25.84 -1,-3.75 -2.24,-7.11 -3.74,-10.11 -0.75,-2.49 -3,-3.74 -6.74,-3.74 -8.74,0 -20.97,6.55 -36.7,19.66 -15.73,13.1 -30.83,27.4 -45.31,42.87l-0.38 0.75c-0.5,0.25 -1.12,0.69 -1.87,1.31 -0.75,0.63 -1.87,0.94 -3.37,0.94z"/>
   <path class="fil10" d="M1527.97 937.45c1.75,0 2.93,0.25 3.56,0.75 0.62,0.5 1.06,1 1.31,1.5 0.25,0.51 0.37,1.26 0.37,2.25l-1.87 2.25c-69.65,38.7 -126.94,58.04 -171.88,58.04 -15.98,0 -28.46,-3.06 -37.44,-9.18 -8.99,-6.12 -14.23,-14.79 -15.73,-26.03 -1.5,1.5 -5.75,5.5 -12.73,11.99 -14.73,13.48 -26.71,20.22 -35.95,20.22 -13.48,0 -20.6,-7.87 -21.34,-23.6 0,-7.98 3,-17.03 8.99,-27.15 5.99,-10.11 13.61,-18.91 22.84,-26.4 9.23,-7.49 18.85,-11.23 28.83,-11.23 8.24,0 14.05,2.37 17.41,7.11 3.37,4.75 5.06,10.24 5.06,16.48 0,1.75 -0.5,2.75 -1.5,2.99 -1,0.25 -2,0.38 -3,0.38 -0.5,0 -1.06,-0.12 -1.69,-0.38 -0.62,-0.24 -1.18,-0.62 -1.69,-1.12 -0.5,-0.5 -0.75,-1.25 -0.75,-2.24 0,-6.74 -4.12,-10.23 -12.36,-10.49 -6.5,0 -13.42,3.37 -20.79,10.12 -7.36,6.74 -13.54,14.48 -18.53,23.21 -4.99,8.74 -7.49,16.1 -7.49,22.1 0,7.48 2.24,11.6 6.74,12.35 5.48,0 12.48,-3.37 20.96,-10.11 8.49,-6.74 17.73,-15.47 27.71,-26.21 1.25,-2.24 3.37,-3.37 6.37,-3.37 5.49,0 8.24,2.37 8.24,7.11 0,23.47 12.73,35.2 38.19,35.2 42.93,0 98.73,-18.59 167.39,-55.79l0.75 -0.75z"/>
   <path class="fil10" d="M1423.83 1166.44c-2.24,0 -4.18,-0.94 -5.8,-2.81 -1.62,-1.87 -2.43,-3.56 -2.43,-5.05 0,-2 0.88,-3.87 2.61,-5.62 1.75,-1.99 9.36,-7.11 22.84,-15.35 39.94,-24.96 82.38,-40.06 127.32,-45.31 0.5,-90.62 16.23,-179.99 47.18,-268.11 29.7,-84.12 62.54,-164.14 98.48,-240.03 2.74,-3.49 5.62,-5.24 8.61,-5.24 6.49,0 9.85,2 10.11,5.99 0,1 -5.99,14.48 -17.97,40.44 -30.46,62.91 -60.67,135.81 -90.62,218.69 -29.46,82.14 -44.81,164.39 -46.06,246.77 3.99,-0.24 8.73,-0.37 14.23,-0.37 32.45,0 69.89,4.75 112.34,14.23 30.2,8.74 64.28,13.11 102.23,13.11 21.72,-1 39.51,-3.99 53.36,-8.99 13.86,-4.99 24.02,-9.86 30.52,-14.61 6.49,-4.74 9.86,-7.49 10.11,-8.24 0.75,-0.75 1.44,-1.12 2.06,-1.12l1.31 0c1.5,0 3,0.63 4.49,1.87 1.5,1.25 2.25,3.62 2.25,7.11 -1,0 -1.87,0.26 -2.62,0.75 -2.25,1.75 -7.18,4.75 -14.79,8.99 -7.61,4.25 -17.91,8.74 -30.89,13.48 -15.24,4.75 -33.83,7.49 -55.8,8.24 -28.71,0 -63.66,-4.49 -104.85,-13.48 -40.69,-8.99 -77.26,-13.48 -109.71,-13.48l-14.23 0.38c0.5,15.23 1.74,30.7 3.74,46.43 0,2.5 -1.5,4.12 -4.49,4.87l-2.99 -0.37c-2.5,-1.5 -4.49,-17.97 -6,-49.43 -51.43,8.24 -96.24,28.59 -134.43,61.04 -4,3.49 -7.36,5.24 -10.11,5.24z"/>
   <path class="fil10" d="M1861.58 909.56c-5.75,0 -8.62,-4.49 -8.62,-13.48 0,-11.98 3.99,-18.84 11.99,-20.59 3.75,0 6.99,1.56 9.73,4.68 2.75,3.13 4.12,6.43 4.12,9.92 0,4.49 -1.87,8.87 -5.62,13.11 -3.74,4.25 -7.62,6.36 -11.61,6.36zm13.48 97.36c-31.21,0 -47.06,-12.23 -47.56,-36.69 0,-15.47 5,-29.71 14.98,-42.69 1.5,-2.75 4.24,-4.12 8.24,-4.12 2.74,0 5.11,0.56 7.11,1.68 1.99,1.13 3,2.69 3,4.68l-0.38 1.87c-8.24,12.49 -12.36,25.71 -12.36,39.7 0,6.99 2.19,13.23 6.56,18.72 4.36,5.5 11.05,8.61 20.03,9.36 15.22,0 33.39,-3.18 54.48,-9.54 21.1,-6.37 41.75,-13.67 61.98,-21.91 20.22,-8.23 37.19,-15.59 50.93,-22.09l21.34 -9.74c2.99,0 4.49,1.25 4.49,3.74 0,0.75 -0.19,1.5 -0.56,2.25 -0.37,0.75 -0.81,1.12 -1.31,1.12 -0.75,0.5 -7.93,3.93 -21.53,10.3 -13.61,6.36 -30.4,13.67 -50.37,21.9 -51.67,20.97 -91.37,31.45 -119.07,31.45z"/>
   <path class="fil10" d="M1965.3 1218.87c21.97,-2.5 44.75,-16.29 68.34,-41.38 23.59,-25.08 41.87,-53.98 54.85,-86.68 -95.11,41.19 -142.67,77.01 -142.67,107.47 0,7.24 1.81,12.48 5.43,15.73 3.63,3.24 8.3,4.87 14.04,4.87zm0 7.49c-17.47,0 -26.59,-9.36 -27.34,-28.09 0,-33.46 51.3,-72.76 153.9,-117.96 5.49,-15.97 8.24,-32.58 8.24,-49.8 0,-20.71 -12.35,-31.08 -37.07,-31.08l-0.75 0c-4.49,0 -6.74,-2.49 -6.74,-7.49 0,-4.99 2.25,-7.49 6.74,-7.49 14.23,0 28.39,-6.12 42.5,-18.35 14.1,-12.23 21.16,-24.21 21.16,-35.95 0,-5.74 -1.75,-8.61 -5.24,-8.61l-0.38 0c-9.23,0 -18.22,3.99 -26.96,11.99 -9.23,8.74 -18.84,13.1 -28.83,13.1 -1.75,0 -3.24,-0.68 -4.49,-2.06 -1.24,-1.37 -1.87,-3.06 -1.87,-5.06 0,-2.25 1.12,-4.12 3.37,-5.62 7.99,-2.25 15.36,-5.12 22.09,-8.61 11.99,-7.49 24.21,-11.24 36.69,-11.24 11.24,0 17.23,6.5 17.98,19.48 0,13.98 -5.49,26.53 -16.48,37.63 -10.98,11.11 -20.6,18.16 -28.83,21.16 15.97,1 23.97,15.48 23.97,43.44 0,12.49 -1.5,24.47 -4.49,35.95 9.48,-4.74 43.18,-18.72 101.1,-41.94 84.38,-32.2 151.03,-63.03 199.96,-92.49l1.87 -1.12c2.74,0 4.12,1.5 4.12,4.49 0,1 -0.63,1.87 -1.87,2.62 -49.93,30.71 -117.45,62.16 -202.58,94.37 -56.67,22.72 -91.87,37.32 -105.6,43.81 -10.73,35.19 -29.08,67.52 -55.04,96.98 -26.21,29.96 -55.92,45.93 -89.12,47.93z"/>
   <path class="fil11" d="M548.5 1307.25c-1.28,0 -2.34,-0.42 -3.17,-1.25 -0.84,-0.84 -1.26,-1.89 -1.26,-3.17l0 -106.35c0,-1.28 0.42,-2.33 1.26,-3.17 0.83,-0.84 1.89,-1.26 3.17,-1.26 1.38,0 2.51,0.5 3.4,1.48l74.93 97.51 0 -94.55c0,-1.28 0.42,-2.33 1.26,-3.17 0.83,-0.84 1.89,-1.26 3.17,-1.26 1.18,0 2.21,0.42 3.1,1.26 0.88,0.84 1.32,1.89 1.32,3.17l0 106.35c0,1.28 -0.44,2.33 -1.32,3.17 -0.89,0.83 -1.92,1.25 -3.1,1.25 -0.69,0 -1.31,-0.12 -1.84,-0.37 -0.54,-0.25 -1.01,-0.57 -1.4,-0.96l-75.08 -97.65 0 94.56c0,1.28 -0.42,2.33 -1.26,3.17 -0.84,0.83 -1.89,1.25 -3.17,1.25z"/>
   <path class="fil11" d="M709.43 1309.6c-8.66,0 -16.3,-1.7 -22.94,-5.09 -6.64,-3.39 -11.85,-8.12 -15.63,-14.17 -3.79,-6.04 -5.68,-12.95 -5.68,-20.72l0 -73.16c0,-1.38 0.42,-2.46 1.26,-3.25 0.84,-0.79 1.89,-1.19 3.17,-1.19 1.38,0 2.46,0.4 3.24,1.19 0.79,0.79 1.19,1.87 1.19,3.25l0 73.16c0,6.1 1.5,11.48 4.5,16.15 3,4.67 7.17,8.33 12.54,10.98 5.36,2.65 11.48,3.99 18.36,3.99 6.98,0 13.13,-1.33 18.44,-3.99 5.31,-2.65 9.49,-6.32 12.54,-10.98 3.05,-4.67 4.58,-10.06 4.58,-16.15l0 -73.16c0,-1.38 0.41,-2.46 1.26,-3.25 0.83,-0.79 1.89,-1.19 3.17,-1.19 1.38,0 2.46,0.4 3.25,1.19 0.79,0.79 1.18,1.87 1.18,3.25l0 73.16c0,7.77 -1.89,14.68 -5.68,20.72 -3.79,6.05 -9.02,10.77 -15.71,14.17 -6.69,3.39 -14.36,5.09 -23.01,5.09z"/>
   <path class="fil11" d="M816.52 1307.25c-1.28,0 -2.34,-0.42 -3.17,-1.25 -0.84,-0.84 -1.26,-1.89 -1.26,-3.17l0 -110.79 8.86 0 0 110.79c0,1.28 -0.42,2.33 -1.26,3.17 -0.84,0.83 -1.89,1.25 -3.17,1.25zm-41.74 -107.24c-1.18,0 -2.14,-0.37 -2.88,-1.11 -0.74,-0.74 -1.11,-1.7 -1.11,-2.88 0,-1.19 0.37,-2.14 1.11,-2.88 0.74,-0.74 1.7,-1.11 2.88,-1.11l83.49 0c1.18,0 2.14,0.37 2.88,1.11 0.74,0.74 1.11,1.7 1.11,2.88 0,1.18 -0.37,2.14 -1.11,2.88 -0.74,0.74 -1.7,1.11 -2.88,1.11l-83.49 0z"/>
   <path class="fil11" d="M945.59 1307.25c-1.08,0 -1.89,-0.22 -2.44,-0.66 -0.54,-0.44 -1.06,-1.01 -1.55,-1.7l-29.35 -46.91 9.15 -2.07 27.88 44.55c1.28,1.97 1.55,3.59 0.81,4.87 -0.74,1.28 -2.24,1.92 -4.5,1.92zm-57.53 -54.58l23.75 0c5.51,0 10.35,-1.1 14.53,-3.32 4.18,-2.22 7.48,-5.23 9.89,-9.07 2.41,-3.83 3.62,-8.26 3.62,-13.28 0,-5.11 -1.21,-9.64 -3.62,-13.57 -2.41,-3.93 -5.71,-7.01 -9.89,-9.22 -4.18,-2.21 -9.02,-3.31 -14.53,-3.31l-23.75 0 0 51.77zm-4.42 54.58c-1.28,0 -2.34,-0.42 -3.17,-1.25 -0.84,-0.84 -1.26,-1.89 -1.26,-3.17l0 -106.35c0,-1.38 0.42,-2.46 1.26,-3.25 0.83,-0.79 1.89,-1.18 3.17,-1.18l28.17 0c7.18,0 13.55,1.5 19.1,4.5 5.55,3 9.9,7.11 13.05,12.32 3.15,5.22 4.72,11.26 4.72,18.14 0,6.69 -1.57,12.64 -4.72,17.85 -3.15,5.21 -7.5,9.3 -13.05,12.25 -5.56,2.95 -11.92,4.42 -19.1,4.42l-23.75 0 0 41.31c0,1.28 -0.39,2.33 -1.18,3.17 -0.79,0.83 -1.87,1.25 -3.24,1.25z"/>
   <path class="fil11" d="M973.32 1307.25c-1.28,0 -2.34,-0.42 -3.17,-1.25 -0.84,-0.84 -1.26,-1.89 -1.26,-3.17l0 -106.35c0,-1.28 0.42,-2.33 1.26,-3.17 0.83,-0.84 1.89,-1.26 3.17,-1.26 1.28,0 2.33,0.42 3.17,1.26 0.83,0.84 1.26,1.89 1.26,3.17l0 106.35c0,1.28 -0.42,2.33 -1.26,3.17 -0.84,0.83 -1.89,1.25 -3.17,1.25z"/>
   <path class="fil11" d="M1059.02 1308.72c-7.87,0 -15.26,-1.55 -22.2,-4.65 -6.93,-3.1 -13.05,-7.37 -18.36,-12.83 -5.31,-5.45 -9.49,-11.75 -12.54,-18.88 -3.05,-7.13 -4.57,-14.73 -4.57,-22.79 0,-7.97 1.48,-15.51 4.42,-22.64 2.95,-7.12 7.06,-13.42 12.32,-18.88 5.26,-5.45 11.38,-9.73 18.36,-12.83 6.98,-3.1 14.5,-4.64 22.57,-4.64 6.79,0 13.23,1.08 19.32,3.24 6.1,2.17 11.8,5.46 17.11,9.89 0.89,0.68 1.33,1.64 1.33,2.88 0,1.23 -0.4,2.31 -1.18,3.24 -0.79,0.94 -1.87,1.4 -3.25,1.4 -0.39,0 -0.79,-0.07 -1.18,-0.22 -0.39,-0.15 -0.79,-0.34 -1.18,-0.59 -0.39,-0.24 -0.84,-0.57 -1.33,-0.96 -3.93,-3.54 -8.41,-6.1 -13.43,-7.67 -5.01,-1.57 -10.42,-2.36 -16.23,-2.36 -6.59,0 -12.83,1.35 -18.73,4.06 -5.9,2.7 -11.11,6.39 -15.63,11.06 -4.53,4.67 -8.07,10 -10.63,16 -2.55,6 -3.84,12.34 -3.84,19.03 0,6.89 1.28,13.38 3.84,19.47 2.56,6.1 6.07,11.46 10.55,16.08 4.47,4.63 9.66,8.24 15.56,10.84 5.9,2.61 12.19,3.91 18.88,3.91 5.8,0 11.24,-0.88 16.3,-2.65 5.07,-1.77 9.81,-4.47 14.23,-8.12 0.79,-0.69 1.72,-0.93 2.8,-0.74 1.08,0.2 2.01,0.68 2.8,1.48 0.78,0.79 1.18,1.82 1.18,3.09 0,0.59 -0.05,1.13 -0.15,1.62 -0.1,0.49 -0.39,0.99 -0.89,1.48 -4.81,4.81 -10.4,8.13 -16.74,9.96 -6.34,1.81 -12.85,2.73 -19.54,2.73z"/>
   <path class="fil11" d="M1124.81 1307.25c-1.28,0 -2.34,-0.42 -3.17,-1.25 -0.84,-0.84 -1.26,-1.89 -1.26,-3.17l0 -106.35c0,-1.28 0.42,-2.33 1.26,-3.17 0.83,-0.84 1.89,-1.26 3.17,-1.26 1.28,0 2.33,0.42 3.17,1.26 0.83,0.84 1.26,1.89 1.26,3.17l0 106.35c0,1.28 -0.42,2.33 -1.26,3.17 -0.84,0.83 -1.89,1.25 -3.17,1.25z"/>
   <path class="fil11" d="M1211.99 1299.87c7.08,0 13.67,-1.25 19.76,-3.76 6.09,-2.51 11.43,-6.05 16.01,-10.62 4.57,-4.57 8.12,-9.91 10.62,-16.01 2.51,-6.1 3.75,-12.73 3.75,-19.92 0,-7.07 -1.25,-13.66 -3.75,-19.76 -2.51,-6.09 -6.05,-11.43 -10.62,-16.01 -4.58,-4.57 -9.91,-8.11 -16.01,-10.62 -6.1,-2.5 -12.69,-3.76 -19.76,-3.76 -7.18,0 -13.82,1.26 -19.91,3.76 -6.1,2.51 -11.43,6.05 -16.01,10.62 -4.58,4.58 -8.12,9.91 -10.62,16.01 -2.51,6.1 -3.76,12.69 -3.76,19.76 0,7.19 1.26,13.82 3.76,19.92 2.51,6.1 6.05,11.43 10.62,16.01 4.57,4.57 9.91,8.11 16.01,10.62 6.09,2.51 12.73,3.76 19.91,3.76zm0 8.85c-8.46,0 -16.28,-1.48 -23.45,-4.43 -7.19,-2.95 -13.45,-7.1 -18.81,-12.46 -5.36,-5.36 -9.51,-11.63 -12.47,-18.81 -2.95,-7.17 -4.43,-14.99 -4.43,-23.46 0,-8.45 1.48,-16.25 4.43,-23.38 2.95,-7.12 7.1,-13.37 12.47,-18.73 5.36,-5.36 11.62,-9.51 18.81,-12.46 7.17,-2.95 14.99,-4.42 23.45,-4.42 8.45,0 16.25,1.47 23.38,4.42 7.13,2.95 13.37,7.1 18.73,12.46 5.36,5.36 9.51,11.61 12.47,18.73 2.95,7.13 4.43,14.93 4.43,23.38 0,8.46 -1.48,16.28 -4.43,23.46 -2.96,7.18 -7.11,13.45 -12.47,18.81 -5.36,5.36 -11.6,9.51 -18.73,12.46 -7.13,2.95 -14.93,4.43 -23.38,4.43z"/>
   <path class="fil11" d="M1299.02 1307.25c-1.28,0 -2.34,-0.42 -3.17,-1.25 -0.84,-0.84 -1.25,-1.89 -1.25,-3.17l0 -106.35c0,-1.28 0.41,-2.33 1.25,-3.17 0.83,-0.84 1.89,-1.26 3.17,-1.26 1.38,0 2.51,0.5 3.39,1.48l74.93 97.51 0 -94.55c0,-1.28 0.42,-2.33 1.26,-3.17 0.83,-0.84 1.89,-1.26 3.17,-1.26 1.18,0 2.21,0.42 3.1,1.26 0.88,0.84 1.32,1.89 1.32,3.17l0 106.35c0,1.28 -0.44,2.33 -1.32,3.17 -0.89,0.83 -1.92,1.25 -3.1,1.25 -0.69,0 -1.31,-0.12 -1.84,-0.37 -0.55,-0.25 -1.01,-0.57 -1.4,-0.96l-75.08 -97.65 0 94.56c0,1.28 -0.42,2.33 -1.25,3.17 -0.84,0.83 -1.89,1.25 -3.17,1.25z"/>
   <path class="fil11" d="M1420.13 1307.25c-1.28,0 -2.34,-0.42 -3.17,-1.25 -0.84,-0.84 -1.25,-1.89 -1.25,-3.17l0 -106.35c0,-1.28 0.41,-2.33 1.25,-3.17 0.83,-0.84 1.89,-1.26 3.17,-1.26 1.28,0 2.33,0.42 3.17,1.26 0.83,0.84 1.25,1.89 1.25,3.17l0 106.35c0,1.28 -0.42,2.33 -1.25,3.17 -0.84,0.83 -1.89,1.25 -3.17,1.25z"/>
   <path class="fil11" d="M1488.57 1308.72c-6.2,0 -11.87,-0.86 -17.04,-2.58 -5.17,-1.72 -9.62,-4.18 -13.35,-7.37 -3.74,-3.19 -6.69,-6.96 -8.86,-11.28 -0.59,-1.19 -0.61,-2.31 -0.07,-3.4 0.54,-1.08 1.45,-1.82 2.73,-2.21 1.08,-0.39 2.16,-0.34 3.24,0.14 1.08,0.5 1.92,1.28 2.51,2.36 1.77,3.15 4.11,5.9 7.01,8.26 2.9,2.36 6.34,4.15 10.32,5.38 3.99,1.23 8.49,1.85 13.5,1.85 5.61,0 10.45,-0.94 14.53,-2.8 4.08,-1.86 7.23,-4.62 9.44,-8.26 2.22,-3.64 3.32,-8.07 3.32,-13.28 0,-6.49 -2.33,-11.97 -7,-16.45 -4.67,-4.47 -11.78,-7.35 -21.32,-8.63 -11.02,-1.57 -19.62,-5.14 -25.82,-10.69 -6.2,-5.56 -9.29,-12.32 -9.29,-20.28 0,-5.8 1.45,-10.87 4.35,-15.19 2.9,-4.33 6.99,-7.69 12.25,-10.11 5.25,-2.4 11.33,-3.61 18.22,-3.61 5.11,0 9.83,0.83 14.16,2.5 4.32,1.68 8.12,3.86 11.35,6.57 3.25,2.7 5.75,5.53 7.53,8.48 0.68,1.08 0.86,2.24 0.52,3.46 -0.35,1.24 -1.16,2.09 -2.44,2.58 -1.08,0.4 -2.17,0.42 -3.24,0.08 -1.09,-0.34 -1.97,-1.01 -2.66,-2 -1.38,-2.06 -3.15,-4.08 -5.31,-6.04 -2.17,-1.97 -4.87,-3.59 -8.11,-4.87 -3.25,-1.28 -7.18,-1.92 -11.8,-1.92 -8.07,0 -14.41,1.82 -19.03,5.46 -4.63,3.64 -6.93,8.8 -6.93,15.48 0,3.54 0.96,6.76 2.88,9.66 1.92,2.9 4.94,5.39 9.07,7.45 4.13,2.06 9.39,3.64 15.78,4.72 12.69,2.16 21.81,6.07 27.36,11.73 5.56,5.65 8.34,12.85 8.34,21.61 0,5.11 -0.86,9.73 -2.58,13.87 -1.72,4.13 -4.18,7.62 -7.37,10.47 -3.2,2.85 -7.01,5.04 -11.43,6.56 -4.43,1.53 -9.34,2.29 -14.75,2.29z"/>
   <path class="fil11" d="M1576.34 1307.25c-1.28,0 -2.34,-0.42 -3.17,-1.25 -0.84,-0.84 -1.26,-1.89 -1.26,-3.17l0 -110.79 8.85 0 0 110.79c0,1.28 -0.42,2.33 -1.26,3.17 -0.83,0.83 -1.89,1.25 -3.17,1.25zm-41.75 -107.24c-1.17,0 -2.14,-0.37 -2.88,-1.11 -0.74,-0.74 -1.1,-1.7 -1.1,-2.88 0,-1.19 0.37,-2.14 1.1,-2.88 0.74,-0.74 1.7,-1.11 2.88,-1.11l83.49 0c1.17,0 2.14,0.37 2.88,1.11 0.74,0.74 1.1,1.7 1.1,2.88 0,1.18 -0.37,2.14 -1.1,2.88 -0.74,0.74 -1.7,1.11 -2.88,1.11l-83.49 0z"/>
   <path class="fil11" d="M1630.62 1278.33l3.54 -7.97 61.37 0 3.39 7.97 -68.3 0zm-10.92 28.91c-1.87,0 -3.17,-0.74 -3.91,-2.21 -0.74,-1.48 -0.76,-2.85 -0.07,-4.13l44.7 -105.77c0.78,-2.06 2.21,-3.1 4.27,-3.1 1.97,0 3.4,1.03 4.28,3.1l44.84 105.77c0.79,1.38 0.74,2.78 -0.14,4.2 -0.89,1.43 -2.17,2.14 -3.83,2.14 -0.99,0 -1.8,-0.22 -2.44,-0.66 -0.64,-0.44 -1.21,-1.15 -1.7,-2.14l-43.37 -103.4 4.72 0 -43.22 103.4c-0.39,0.99 -0.94,1.7 -1.62,2.14 -0.69,0.44 -1.53,0.66 -2.51,0.66z"/>
  </g>
 </g>
</svg>
